PathFileType	4	(X/Y/Z)	C:/Users/opensim2020/Desktop/walking_exp_matlab/subject06_walking13_straight_02.trc																																																																																																																																																				
DataRate	CameraRate	NumFrames	NumMarkers	Units	OrigDataRate	OrigDataStartFrame	OrigNumFrames																																																																																																																																																
100	100	8	50	mm	100	1711	199																																																																																																																																																
Frame#	Time	LFHD			RFHD			LBHD			RBHD			C7			T10			CLAV			STRN			RBAK			LSHO			LUPA			LELB			LFRM			LWRA			LWRB			LFIN			RSHO			RUPA			RELB			RFRM			RWRA			RWRB			RFIN			LASI			RASI			LPSI			RPSI			LTHI			LKNE			LTIB			LANK			LHEE			LTOE			RTHI			RKNE			RTIB			RANK			RHEE			RTOE			*39			*40			*41			*42			*43			*44			*45			*46			*47			*48			*49		
		X1	Y1	Z1	X2	Y2	Z2	X3	Y3	Z3	X4	Y4	Z4	X5	Y5	Z5	X6	Y6	Z6	X7	Y7	Z7	X8	Y8	Z8	X9	Y9	Z9	X10	Y10	Z10	X11	Y11	Z11	X12	Y12	Z12	X13	Y13	Z13	X14	Y14	Z14	X15	Y15	Z15	X16	Y16	Z16	X17	Y17	Z17	X18	Y18	Z18	X19	Y19	Z19	X20	Y20	Z20	X21	Y21	Z21	X22	Y22	Z22	X23	Y23	Z23	X24	Y24	Z24	X25	Y25	Z25	X26	Y26	Z26	X27	Y27	Z27	X28	Y28	Z28	X29	Y29	Z29	X30	Y30	Z30	X31	Y31	Z31	X32	Y32	Z32	X33	Y33	Z33	X34	Y34	Z34	X35	Y35	Z35	X36	Y36	Z36	X37	Y37	Z37	X38	Y38	Z38	X39	Y39	Z39	X40	Y40	Z40	X41	Y41	Z41	X42	Y42	Z42	X43	Y43	Z43	X44	Y44	Z44	X45	Y45	Z45	X46	Y46	Z46	X47	Y47	Z47	X48	Y48	Z48	X49	Y49	Z49	X50	Y50	Z50
																																																																																																																																																							
175	1.74	821.23035	1661.24341	-1495.07214	807.87891	1643.34167	-1364.35901	684.76117	1617.8999	-1511.14404	673.18726	1605.43372	-1383.22864	667.86761	1451.7522	-1462.11707	642.39795	1119.2533	-1458.77014	778.71942	1374.68506	-1455.62915	822.64899	1200.71594	-1468.0437	593.80841	1275.27576	-1394.27759	733.06451	1412.74475	-1619.17493	772.58282	1218.71582	-1701.81226	799.90564	1109.75647	-1720.53113	885.66034	985.71985	-1737.04419	983.62726	908.99896	-1683.00171	938.43756	878.81732	-1728.51794	1011.56171	827.14191	-1722.62476	723.69196	1398.59473	-1296.27075	661.77155	1200.18274	-1222.90637	655.31036	1078.43665	-1215.42322	647.1109	958.36273	-1198.5293	684.30658	809.00537	-1219.09045	625.07001	822.23364	-1191.11633	643.54852	740.56879	-1182.04358	819.66943	963.17499	-1572.08582	830.14606	971.45087	-1350.17456	662.29431	986.93604	-1534.16968	677.36127	986.73273	-1366.18933	741.81616	647.78717	-1613.65283	729.37347	484.03769	-1586.25659	640.00641	240.63611	-1569.54187	596.95203	76.77756	-1516.35193	554.80255	68.68633	-1469.95374	737.72906	39.45839	-1517.05054	866.14362	647.47583	-1291.55457	913.11487	531.74359	-1318.2854	863.93756	272.97391	-1315.85046	841.95837	87.36153	-1354.69543	804.00104	62.50292	-1401.46448	990.2038	45.63791	-1348.80322	719.04736	1704.38599	-1442.90417	NaN	NaN	NaN	NaN	NaN	NaN	NaN	NaN	NaN	NaN	NaN	NaN	NaN	NaN	NaN	NaN	NaN	NaN	NaN	NaN	NaN	NaN	NaN	NaN	NaN	NaN	NaN	NaN	NaN	NaN
176	1.75	831.64221	1660.27051	-1494.16235	818.04242	1642.25232	-1363.55298	695.2605	1616.81885	-1510.58252	683.43512	1604.21094	-1382.74048	678.81055	1450.67542	-1461.52368	652.4389	1118.40906	-1458.00537	789.16217	1373.552	-1455.1123	832.80719	1199.49683	-1467.67297	604.08173	1274.49487	-1393.97119	743.62958	1411.84692	-1618.48828	784.12616	1218.28076	-1701.17773	812.46515	1109.52295	-1719.95129	901.12372	987.70642	-1736.10034	1002.60461	914.73212	-1682.75452	957.51501	882.53058	-1727.14978	1032.41833	833.45728	-1721.75073	734.08582	1397.5835	-1295.70068	670.30695	1199.71887	-1222.59473	662.88861	1077.95325	-1215.34131	653.67999	957.89771	-1198.75964	689.59045	808.14313	-1219.7146	630.51587	821.93732	-1191.54626	648.11237	739.95801	-1182.89954	829.23706	961.99438	-1571.90759	840.09161	970.00897	-1349.86487	671.94946	986.15686	-1533.63599	687.44739	985.71796	-1365.71204	749.13092	647.12726	-1613.39148	735.05023	483.47058	-1586.2688	642.45697	241.03719	-1569.42896	597.32623	77.57214	-1516.33411	555.39008	69.91143	-1469.9165	737.77826	39.34235	-1517.02527	874.10065	645.4538	-1291.2041	921.25122	529.63953	-1318.26843	884.43561	269.10226	-1316.85608	873.6311	82.60174	-1356.34534	837.17047	56.8749	-1403.95825	1023.84644	45.70642	-1351.19006	729.26709	1703.28699	-1442.18811	NaN	NaN	NaN	NaN	NaN	NaN	NaN	NaN	NaN	NaN	NaN	NaN	NaN	NaN	NaN	NaN	NaN	NaN	NaN	NaN	NaN	NaN	NaN	NaN	NaN	NaN	NaN	NaN	NaN	NaN
177	1.76	842.02478	1659.32275	-1493.19666	828.09131	1641.06836	-1362.65637	705.75098	1615.63269	-1509.97302	693.72064	1602.84863	-1382.17957	689.37268	1449.60474	-1461.00879	662.48395	1117.53601	-1457.45117	799.63739	1372.36792	-1454.51587	843.02765	1198.22668	-1467.17358	614.38232	1273.59644	-1393.6377	754.0943	1410.91138	-1617.82495	795.54486	1217.66211	-1700.46484	824.9187	1109.17932	-1719.22156	916.68335	989.68347	-1735.43201	1020.4892	920.33826	-1682.4054	976.15289	886.25684	-1725.62024	1052.55603	839.63965	-1720.70007	744.46106	1396.53296	-1295.13074	678.9162	1199.24304	-1222.20178	670.66516	1077.43201	-1215.19373	660.55585	957.39856	-1198.87695	695.32556	807.52759	-1220.40857	636.28088	821.63953	-1191.96533	653.43219	739.35742	-1183.65137	838.9613	960.91492	-1571.55164	850.32343	968.53436	-1349.52075	681.6864	985.40027	-1533.06885	697.63306	984.69	-1365.17688	756.53595	646.48669	-1613.17847	740.89185	482.86096	-1586.29565	645.00745	241.63538	-1569.57288	597.96167	78.60727	-1516.31873	555.7254	71.31972	-1469.96741	737.87689	39.30557	-1517.09766	881.39758	643.11719	-1290.73608	929.05164	527.26257	-1318.25366	904.54425	265.69226	-1317.96326	904.72034	79.08874	-1358.11462	869.41162	53.67154	-1406.01025	1056.8429	45.61191	-1353.96863	739.51733	1702.10986	-1441.41797	NaN	NaN	NaN	NaN	NaN	NaN	NaN	NaN	NaN	NaN	NaN	NaN	NaN	NaN	NaN	NaN	NaN	NaN	NaN	NaN	NaN	NaN	NaN	NaN	NaN	NaN	NaN	NaN	NaN	NaN
178	1.77	852.53485	1658.33899	-1492.20557	838.16235	1639.73755	-1361.81287	716.28906	1614.45752	-1509.49988	704.021	1601.52209	-1381.58008	699.95972	1448.52014	-1460.33691	672.66235	1116.51819	-1456.47498	810.12366	1371.13696	-1453.71985	853.10022	1196.83887	-1466.46985	624.70929	1272.59143	-1393.1969	764.41943	1409.91833	-1617.14392	806.93494	1216.92261	-1699.66882	837.18689	1108.71582	-1718.4126	931.7027	991.42426	-1734.37329	1037.81702	925.81219	-1681.77112	994.23431	889.85083	-1723.80566	1072.16235	845.80463	-1719.4917	754.76495	1395.47083	-1294.44421	687.70233	1198.70447	-1221.69092	678.77454	1076.84448	-1214.96375	667.79022	956.87061	-1198.91748	701.36749	806.7901	-1221.02478	642.56519	821.17578	-1192.26807	659.21399	738.7674	-1184.29993	849.30029	959.98425	-1570.88635	860.60492	967.00513	-1349.12708	691.58997	984.57904	-1532.4917	707.8725	983.58197	-1364.5885	764.12042	645.66211	-1613.27979	747.0307	482.19836	-1586.38232	647.64172	242.2661	-1569.76685	598.47443	79.71268	-1516.50684	556.34601	72.81555	-1470.31323	737.96069	39.28283	-1517.20361	889.00671	640.66284	-1290.10962	936.6474	524.6217	-1318.21912	924.15503	262.85971	-1319.16663	934.80542	76.71738	-1360.16565	900.48993	52.50306	-1408.21802	1088.60278	44.84641	-1356.80945	749.75854	1700.88794	-1440.59705	NaN	NaN	NaN	NaN	NaN	NaN	NaN	NaN	NaN	NaN	NaN	NaN	NaN	NaN	NaN	NaN	NaN	NaN	NaN	NaN	NaN	NaN	NaN	NaN	NaN	NaN	NaN	NaN	NaN	NaN
179	1.78	863.01202	1657.29358	-1491.14331	848.32666	1638.46484	-1360.89063	726.90186	1613.24146	-1508.66821	714.2962	1600.15613	-1380.92065	710.50867	1447.27612	-1459.5531	683.01215	1115.4353	-1455.63843	820.68701	1369.94519	-1452.92456	863.45447	1195.56934	-1465.74097	634.99274	1271.61475	-1392.80151	774.92639	1408.84656	-1616.30591	818.25006	1216.07178	-1698.71924	849.43848	1108.1908	-1717.45996	946.60358	993.0943	-1733.24475	1054.8595	931.10522	-1680.89111	1011.85712	893.20978	-1721.95496	1091.12463	851.76965	-1718.14441	765.00476	1394.38159	-1293.66528	696.63873	1198.12427	-1221.13	686.97308	1076.23645	-1214.67664	675.26453	956.26263	-1198.87903	708.10034	806.02881	-1221.36646	649.37646	820.72424	-1192.48743	665.31653	737.98462	-1184.91174	858.24341	958.29224	-1570.79114	870.9588	965.37268	-1348.6676	701.4646	983.72198	-1531.88892	718.20972	982.45422	-1363.99243	772.04254	645.11121	-1612.96631	753.59686	481.49191	-1586.42688	650.65955	242.87166	-1570.07275	599.00482	80.89576	-1516.9751	556.56207	74.55724	-1470.67114	738.04852	39.19425	-1517.26038	896.37195	637.86621	-1289.4165	944.44617	521.8595	-1318.13989	942.68805	260.64789	-1320.59802	963.45111	75.69284	-1362.39185	929.95953	52.26722	-1411.04456	1118.9668	43.43354	-1360.14001	760.07159	1699.65649	-1439.75781	NaN	NaN	NaN	NaN	NaN	NaN	NaN	NaN	NaN	NaN	NaN	NaN	NaN	NaN	NaN	NaN	NaN	NaN	NaN	NaN	NaN	NaN	NaN	NaN	NaN	NaN	NaN	NaN	NaN	NaN
180	1.79	874.0506	1656.45605	-1490.146	858.39044	1637.29773	-1359.76428	737.53693	1612.00439	-1507.87097	724.57953	1598.92383	-1380.26978	721.09259	1446.03271	-1458.61072	693.0816	1114.41211	-1454.84656	831.22461	1368.76843	-1451.96021	873.83087	1194.35754	-1464.93433	645.31958	1270.52832	-1392.22498	785.52209	1407.68872	-1615.39673	829.49634	1215.13025	-1697.73157	861.57617	1107.6073	-1716.49268	961.26459	994.7179	-1732.02844	1071.27039	936.14832	-1679.83826	1029.03503	896.54938	-1719.98352	1109.42957	857.57843	-1716.65942	775.23279	1393.27966	-1292.82202	705.56183	1197.55298	-1220.46252	695.27808	1075.60754	-1214.34009	683.02771	955.67822	-1198.73462	715.12573	805.43188	-1221.69495	656.56232	820.16077	-1192.59839	672.37946	737.31476	-1185.59607	868.21637	957.16339	-1570.27698	881.44757	963.69781	-1348.17737	711.56439	982.71741	-1531.19226	728.63696	981.22003	-1363.34558	780.15356	644.42816	-1612.89368	760.48352	480.69778	-1586.47827	653.85034	243.48148	-1570.51501	599.7229	82.25133	-1517.59753	557.34344	76.33121	-1471.58203	738.17426	39.12801	-1517.40649	903.89801	635.25543	-1288.43506	952.47797	519.33148	-1317.89526	960.83893	259.15311	-1321.46472	989.86407	75.50875	-1365.08313	957.63269	52.75303	-1413.99377	1147.76294	42.38657	-1363.92554	770.5141	1698.43372	-1438.85938	NaN	NaN	NaN	NaN	NaN	NaN	NaN	NaN	NaN	NaN	NaN	NaN	NaN	NaN	NaN	NaN	NaN	NaN	NaN	NaN	NaN	NaN	NaN	NaN	NaN	NaN	NaN	NaN	NaN	NaN
181	1.8	884.58203	1655.31641	-1488.97937	868.72858	1636.14392	-1358.62915	748.07928	1610.83093	-1507.25757	734.88983	1597.63269	-1379.41797	731.68146	1444.84448	-1457.61584	703.59375	1113.15442	-1453.64441	841.67676	1367.51587	-1450.92078	884.13141	1193.11926	-1464.01453	655.68909	1269.37415	-1391.51196	795.97205	1406.58008	-1614.5166	840.66241	1214.11914	-1696.68604	873.70728	1107.11328	-1715.29309	975.47784	996.15527	-1730.60742	1087.13623	940.8855	-1678.52563	1045.6051	899.63586	-1717.8241	1127.09753	863.13214	-1714.96948	785.53119	1392.19763	-1291.8208	714.70844	1196.99756	-1219.76965	703.72272	1074.99731	-1213.88403	690.93829	955.05609	-1198.52026	722.6438	804.73608	-1221.8396	664.18988	819.60846	-1192.6781	679.7984	736.71063	-1185.99487	878.31592	955.98181	-1569.80298	891.97131	962.10815	-1347.67969	721.70636	981.6264	-1530.43835	739.09326	980.03583	-1362.65271	788.51831	643.6145	-1612.9054	767.6712	479.9061	-1586.53711	657.33081	244.18597	-1571.0343	600.43195	83.69654	-1518.25781	557.70667	78.50725	-1472.36487	738.26147	39.08913	-1517.56421	911.72076	632.88544	-1287.21667	960.55078	516.92926	-1317.49756	977.69348	257.83105	-1322.5769	1014.8844	76.21012	-1367.04089	983.25385	53.80324	-1416.50769	1174.57654	41.97557	-1367.97058	780.81134	1697.23401	-1437.91785	NaN	NaN	NaN	NaN	NaN	NaN	NaN	NaN	NaN	NaN	NaN	NaN	NaN	NaN	NaN	NaN	NaN	NaN	NaN	NaN	NaN	NaN	NaN	NaN	NaN	NaN	NaN	NaN	NaN	NaN
182	1.81	895.1571	1654.19397	-1487.73059	878.93011	1634.94629	-1357.37427	758.6308	1609.61511	-1506.33289	745.20367	1596.39099	-1378.47644	742.13074	1443.65186	-1456.73242	713.86395	1112.0946	-1452.80444	852.28973	1366.30884	-1449.86572	894.58691	1191.87671	-1463.01147	666.0675	1268.1543	-1390.67175	806.6925	1405.39124	-1613.37256	851.85376	1213.27417	-1695.42944	885.72314	1106.40637	-1714.1228	989.54083	997.52863	-1729.13013	1102.40784	945.28107	-1676.97278	1061.71973	902.60565	-1715.68311	1144.23999	868.49176	-1713.13452	795.8761	1391.06958	-1290.7832	723.64624	1196.37012	-1219.05835	712.19031	1074.37073	-1213.36145	699.12689	954.32867	-1198.24304	730.5686	804.03455	-1221.87256	672.07245	818.96204	-1192.74133	687.63074	735.99231	-1186.29883	888.63135	954.8681	-1569.31934	902.52991	960.6474	-1347.07361	732.1394	980.45807	-1529.60583	749.55029	978.82813	-1361.94336	797.25684	642.87366	-1612.86438	775.11133	479.19888	-1586.57324	660.93665	245.0826	-1571.61536	601.30042	85.44041	-1519.08203	558.34546	80.8819	-1473.38306	738.43243	39.05156	-1517.75781	919.92542	630.71704	-1285.67883	968.46576	514.58984	-1316.89648	993.45789	256.76874	-1324.05566	1037.75793	77.09348	-1369.21387	1006.82233	55.70315	-1418.55701	1199.08044	41.7351	-1372.26208	791.29688	1696.00549	-1436.89893	NaN	NaN	NaN	NaN	NaN	NaN	NaN	NaN	NaN	NaN	NaN	NaN	NaN	NaN	NaN	NaN	NaN	NaN	NaN	NaN	NaN	NaN	NaN	NaN	NaN	NaN	NaN	NaN	NaN	NaN
